<?xml version="1.0" encoding="utf-8"?>
<!-- Generator: Adobe Illustrator 16.0.0, SVG Export Plug-In . SVG Version: 6.00 Build 0)  -->
<!DOCTYPE svg PUBLIC "-//W3C//DTD SVG 1.1//EN" "http://www.w3.org/Graphics/SVG/1.1/DTD/svg11.dtd">
<svg version="1.1" id="Layer_1" xmlns="http://www.w3.org/2000/svg" xmlns:xlink="http://www.w3.org/1999/xlink" x="0px" y="0px"
	 width="118px" height="50px" viewBox="0 0 118 50" enable-background="new 0 0 118 50" xml:space="preserve">
<g>
	<path fill="#004F7E" d="M26.673,8.787l1.492,10.108c-8.127-1.583-17.614-2.014-22.384,1.841c-4.088,3.304-3.967,9.895,3.704,14.88
		c-9.104-6.806-5.354-13.573,2.578-14.938c6.655-1.146,15.929,0.884,22.936,3.427l-6.298,14.132L13.09,36.631l16.405,3.382
		l9.472-18.123c-2.172-0.834-5.195-1.761-8.579-2.527L26.673,8.787z"/>
	<path fill="#A5CD39" d="M27.123,17.792l-8.074-1.358l7.597-8.344l-10.073,7.927l-7.909-1.33l0.343,3.681
		C13.282,16.206,21.905,17.107,27.123,17.792z"/>
	<path fill="#A5CD39" d="M12.04,21.387c-1.663,0.276-4.193,1.155-5.464,2.225c-2.871,2.417-2.817,7.199,2.518,10.782
		c-5.689-4.403-4.118-8.831,0.288-10.427l0.733,11.655l12.248,1.414l4.918,0.534l-15.905-3.201L12.04,21.387z"/>
	<path fill="#D2D3D3" d="M21.17,40.828c-5.508,0-9.973,0.242-9.973,0.54c0,0.299,4.465,0.541,9.973,0.541
		c5.508,0,9.972-0.242,9.972-0.541C31.142,41.07,26.678,40.828,21.17,40.828z"/>
	<path fill="#A5CD39" d="M15.699,33.858l2.668-10.633c-0.537-0.039-1.069-0.065-1.593-0.08L15.699,33.858z"/>
	<path fill="#A5CD39" d="M20.519,34.455l2.666-10.629c-0.525-0.091-1.051-0.175-1.576-0.25L20.519,34.455z"/>
	<path fill="#A5CD39" d="M25.154,35.542l2.69-10.72c-0.523-0.132-1.049-0.258-1.577-0.378L25.154,35.542z"/>
</g>
<text transform="matrix(1 0 0 1 41.8691 33.2305)" fill="#A5CD39" font-family="'Montserrat-Bold'" font-size="13.7552">Sarbismol</text>
</svg>
